<?xml version="1.0" encoding="utf-8" ?>
<svg xmlns="http://www.w3.org/2000/svg" xmlns:xlink="http://www.w3.org/1999/xlink" width="512" height="512">
	<path fill="white" transform="scale(0.666667 0.666667)" d="M171.703 125.833C172.505 125.754 173.085 125.969 173.833 126.259C175.545 126.921 176.663 128.367 176.671 130.228C176.678 132.13 175.835 134.199 175.308 136.021L172.617 146.081C169.124 161.347 166.538 176.865 166.794 192.577C167.317 224.729 175.193 258.215 194.626 284.342C198.389 289.402 203.1 294.049 207.28 298.787C209.698 301.529 212.035 303.831 213.635 307.166C213.053 308.796 212.427 310.47 211.372 311.863C210.629 312.845 209.841 313.099 208.688 313.302C205.881 312.086 203.433 308.732 201.351 306.519C189.701 294.134 179.726 280.964 172.449 265.515C167.07 254.094 163.524 241.73 161.064 229.384C156.277 205.358 155.787 180.454 160.316 156.349C161.762 148.65 163.589 140.724 166.278 133.359C167.483 130.059 168.333 127.401 171.703 125.833Z"/>
	<path fill="white" transform="scale(0.666667 0.666667)" d="M592.896 126.583L593.952 126.423C595.111 126.321 596.487 126.767 597.322 127.607C599.626 129.926 600.318 134.477 601.168 137.519C604.788 150.477 608.06 164.475 608.593 177.973C609.154 192.159 608.913 206.596 606.88 220.666C602.939 247.931 591.763 273.778 575.395 295.86C570.723 302.163 565.565 307.922 560.248 313.672C559.153 314.246 559.047 314.252 557.816 314.114C556.499 313.315 555.765 312.247 555.138 310.839C554.788 310.052 554.652 309.212 554.709 308.354C554.91 305.337 557.025 303.092 558.765 300.799L570.392 286.203C581.049 271.493 588.746 254.973 593.278 237.367C599.599 212.813 600.691 186.812 596.974 161.764C595.967 154.975 594.166 148.041 592.33 141.424C591.459 138.283 590.251 135.088 589.735 131.87C589.535 130.62 589.462 129.665 589.923 128.458C590.894 127.549 591.669 127.087 592.896 126.583Z"/>
	<path fill="white" transform="scale(0.666667 0.666667)" d="M383.605 60.1973L384.383 60.343C387.697 62.9456 389.602 67.3476 391.916 70.7834C397.247 78.7002 402.544 86.9238 408.503 94.3717C419.163 107.693 431.994 118.843 443.719 131.175C457.464 145.632 469.877 161.808 480.026 178.995L490.544 198.719C492.965 197.295 494.948 195.512 497.181 193.836L507.882 186.001C520.61 176.943 534.161 168.606 548.364 162.077C552.531 160.16 556.56 157.954 561.188 157.647C562.037 158.132 562.648 158.505 563.155 159.369C564.401 161.494 564.38 164.458 564.601 166.867L565.482 181.307L566.263 200.72L565.676 216.091L565.258 227.765C564.234 240.271 561.987 252.829 558.951 264.989C556.344 275.427 552.746 285.629 548.812 295.627C544.797 305.829 540.23 316.006 533.345 324.64C522.888 337.754 506.864 347.07 493.252 356.601L470.451 372.341C466.022 375.49 461.984 378.896 457.29 381.715L455.438 380.272C454.014 378.947 452.996 376.726 452.939 374.787C452.898 373.395 453.665 372.599 454.599 371.687C458.841 367.547 464.385 364.335 469.312 361.087L499.201 340.623C506.93 334.907 514.654 328.72 521.345 321.802C530.851 311.974 536.722 299.716 541.548 287.088C547.542 271.403 551.578 255.645 553.372 238.914C554.86 225.03 554.844 210.841 554.552 196.897L551.492 198.122C543.038 202.406 535.294 208.507 528.007 214.504C522.036 219.419 515.966 224.358 510.402 229.734C492.683 246.85 477.196 266.403 462.037 285.765L452.107 298.356C451.724 298.883 450.52 300.24 450.367 300.808C450.124 301.713 451.077 305.143 451.191 306.222L451.562 312.989L452.58 322.422C453.321 334.937 452.792 347.738 451.703 360.204C450.649 372.281 449.312 383.603 445.472 395.209C450.018 392.289 454.093 388.707 458.686 385.886C472.673 377.294 487.376 370.142 501.822 362.39L549.843 336.058L578.438 320.643C583.187 318.144 589.389 315.846 593.553 312.562C595.553 310.985 597.064 308.606 598.621 306.612L605.793 297.991C607.925 295.515 610.251 293.201 612.271 290.631C629.089 269.232 641.867 244.224 647.687 217.535C649.8 207.85 650.844 198.341 651.5 188.481C652.189 178.117 651.771 167.296 650.769 156.955C650.329 152.419 649.681 147.752 648.793 143.281C648.144 140.016 647.033 136.4 646.845 133.092C646.783 132.004 646.912 130.929 647.452 129.962C648.073 128.85 649.198 127.78 650.441 127.428C651.497 127.128 652.79 127.225 653.705 127.879C657.827 130.828 660.058 154.319 660.734 159.975C661.466 166.098 661.441 172.274 661.425 178.431C661.335 213.763 651.667 249.997 632.434 279.774C629.022 285.058 625.25 290.398 621.237 295.237L611.232 306.908C618.262 305.052 625.034 302.264 631.904 299.887L651.278 294.205C654.924 293.281 660.822 291.143 664.383 292.742C665.594 293.286 666.302 294.37 666.701 295.599C668.133 300.011 664.383 308.54 663.043 312.801C659.661 323.557 656.613 333.924 651.785 344.148C657.377 344.817 663.102 344.418 668.724 344.873C684.676 346.166 700.757 349.376 715.936 354.428C719.11 355.485 724.611 356.862 726.924 359.309C727.681 360.11 727.409 360.812 727.353 361.822C725.153 365.746 720.945 369.247 717.821 372.497C706.19 384.597 693.916 396.423 680.663 406.744C674.105 411.852 667.21 416.337 660.242 420.85C660.7 421.197 661.588 421.186 662.163 421.26C666.062 421.764 670.299 421.429 674.252 421.615L691.477 422.835L707.825 424.932C710.874 425.459 714.173 425.905 717.035 427.133C718.393 427.716 718.88 428.31 719.371 429.633C719.224 431.025 718.949 431.718 718.067 432.809C714.412 437.33 709.187 440.6 704.625 444.128C680.98 462.415 655.337 477.117 627.865 488.842C618.374 492.893 607.729 497.198 597.434 498.419C600.889 501.021 604.548 503.391 607.835 506.207C615.064 512.4 621.455 519.717 628.184 526.447C632.003 530.266 636.159 533.693 639.623 537.857C635.032 541.855 629.19 544.437 623.6 546.72C613.803 550.72 603.548 553.733 593.154 555.725L584.25 557.31C583.592 557.429 581.78 557.592 581.292 557.9C580.68 558.286 579.769 559.683 579.264 560.271L574.194 565.969C564.365 576.183 553.063 583.696 539.752 588.571C526.972 593.252 512.976 596.018 499.348 596.078C491.955 596.11 484.269 595.062 477 593.751C459.829 590.654 444.451 585.575 428.664 578.268C426.758 587.913 425.821 597.632 423.476 607.224C419.543 623.31 414.373 639.105 408.142 654.45L386.236 702.93L383.579 707.923L371.886 682.379C357.033 649.256 343.269 614.444 340.328 577.913C299.72 600.137 245.842 603.984 206.238 577.375C201.119 573.936 196.242 569.778 192.395 564.941C191.479 563.789 186.865 556.793 186.496 556.618C185.588 556.19 182.999 556.242 181.926 556.147C174.269 555.465 166.696 553.972 159.288 551.922C152.661 550.088 132.956 543.956 129.699 538.213C129.809 536.805 130.258 536.231 131.185 535.166C134.726 531.1 139.298 527.728 143.162 523.946L157.398 509.387L170.044 498.397L147 491.709C116.81 481.752 88.7094 464.658 63.8585 445.085C58.9967 441.256 51.8826 436.332 49.0722 430.758C49.1011 429.445 49.134 428.826 50.0625 427.833C53.8434 423.789 88.0142 421.835 95.8287 421.559C99.9841 421.412 104.229 421.868 108.363 421.442C103.098 418.159 98.2557 414.407 93.3333 410.648C77.8295 398.81 63.772 385.455 50.0038 371.669L43.3724 364.849C42.5802 363.979 41.3383 362.808 40.8454 361.746C40.3517 360.683 40.5536 360.512 40.9823 359.496C44.059 357.167 48.1128 356.199 51.7242 354.934C72.7028 347.586 93.8674 345.495 115.905 344.245C116.007 343.568 115.365 342.553 115.092 341.911L112.116 334.473C109.571 327.606 100.07 300.7 102.096 294.906C102.375 294.109 103.411 293.248 104.157 292.9C109.504 290.41 147.645 304.214 155.802 306.679C152.526 301.669 148.115 297.404 144.188 292.907C139.567 287.616 135.417 281.663 131.812 275.639C113.515 245.058 105.684 210.39 106.318 174.925C106.571 160.783 108.002 146.742 111.562 133.012C112.127 130.834 112.831 128.85 114.841 127.662C116.325 127.482 117.52 127.653 118.722 128.629C120.166 129.801 120.503 131.207 120.496 133.004C120.482 136.501 119.464 140.375 118.867 143.825L117.246 155.391C115.29 170.626 115.325 185.366 116.748 200.65C117.375 207.384 118.76 214.148 120.321 220.723C124.55 238.537 131.387 256.056 141.188 271.576C146.356 279.76 152.393 287.032 158.582 294.446C163.203 299.981 167.364 306.344 173.038 310.851C177.574 314.456 183.109 316.752 188.244 319.351L208.865 330.059L274.426 366.648L306.473 384.691C311.246 387.648 316.375 390.644 320.684 394.255L320.962 394.492C320.963 392.006 320.174 389.41 319.593 387.004C318.528 382.597 317.275 378.003 316.812 373.486C314.817 354.02 314.889 334.167 316.379 314.673C316.773 309.514 316.949 304.479 317.702 299.343C312.719 291.407 306.469 284.479 300.619 277.205C279.59 251.052 257.338 224.898 229.034 206.365C224.068 203.112 219.232 199.857 213.759 197.494C213.785 209.174 213.529 220.888 214.505 232.538C216.313 254.119 221.717 275.53 230.386 295.351C233.931 303.457 238.083 312.244 244.004 318.9C247.01 322.279 250.517 325.119 253.883 328.116C266.926 339.73 281.74 349.449 296.328 359.026C301.684 362.542 307.882 365.479 312.731 369.659C313.562 370.376 314.843 371.34 315.355 372.298C315.852 373.227 315.875 374.804 315.639 375.807C315.245 377.48 314.088 379.329 312.586 380.216C311.693 380.742 310.754 380.89 309.75 380.615C306.648 379.764 303.864 376.968 301.312 375.103L291.669 368.403L270.82 353.787C262.097 347.819 253.193 341.86 245.215 334.916C239.769 330.175 234.354 324.611 230.522 318.448C218.555 299.202 212.384 277.406 207.938 255.37C205.512 243.346 203.668 231.104 202.932 218.848C202.271 207.835 202.562 196.59 202.922 185.564L203.704 170.449C203.866 167.134 203.727 163.405 204.571 160.206C204.937 158.82 205.569 158.376 206.715 157.678C210.869 157.714 215.632 160.344 219.375 162.035C234.064 168.669 247.549 176.953 260.769 186.143C266.433 190.081 271.846 194.753 277.751 198.313C282.367 191.379 285.872 183.438 290.161 176.255C297.527 163.921 306.383 152.297 315.719 141.398C328.995 125.897 345.6 113.256 358.255 97.3284C363.346 90.9212 367.918 84.0973 372.282 77.1809L377.15 69.4844C379.061 66.2561 380.845 62.7897 383.605 60.1973ZM385.022 200.89C369.683 214.004 355.748 228.897 344.883 245.958C342.004 250.479 339.256 254.737 337.226 259.747C334.089 267.49 332.372 275.924 330.867 284.109C329.062 293.924 327.517 303.69 326.737 313.648L325.583 327.03C324.792 346.233 326.238 365.98 329.741 384.866C330.683 389.947 331.538 395.349 333.189 400.251C333.776 401.993 337.143 404.007 338.625 405.085L352.047 414.928L362.112 423.246C365.586 426.247 369.005 429.684 371.881 433.263C377.548 440.314 380.946 448.09 384.113 456.484L384.248 456C390.043 435.893 406.173 420.631 422.955 409.08L432.352 402.731C433.077 402.234 434.732 401.38 435.223 400.761C435.549 400.35 435.806 398.111 435.935 397.509L438.533 383.947C444.618 348.272 443.727 311.3 434.674 276.207C432.113 266.276 429.239 256.691 424.286 247.654C420.673 241.061 415.99 234.953 411.277 229.122C405.616 222.117 399.76 215.492 393.394 209.131C390.658 206.397 387.964 203.391 385.022 200.89ZM384.201 79.5667L370.68 98.8649L356.955 115.567C354.568 118.303 351.883 121.003 349.172 123.418C347.453 124.95 344.731 126.652 343.475 128.56C342.333 130.296 342.385 132.519 341.983 134.495C341.542 136.661 340.936 138.78 340.305 140.898L328.35 180.053L314.683 227.586C316.963 230.574 319.859 233.161 322.511 235.818L332.091 245.485C337.221 239.081 341.362 232.123 346.385 225.674C354.915 214.721 364.94 205.051 374.72 195.222C378.073 191.852 381.08 188.016 384.687 184.928C390.21 189.148 394.609 194.56 399.374 199.582C406.644 207.244 414.664 214.914 420.801 223.519L429.702 236.636C431.625 239.707 433.284 243.033 435.443 245.936L453.35 229.385C453.229 227.591 452.303 225.516 451.747 223.791L449.268 215.057L433.497 161.861C429.956 150.669 426.066 139.472 423.364 128.042C423.101 126.927 411.052 114.735 408.964 112.436C402.321 105.121 396.585 96.7362 390.854 88.702C388.65 85.6125 386.691 82.4523 384.201 79.5667ZM246.877 467.427C237.23 469.339 228.66 473.065 219.966 477.53C197.204 489.218 177.878 505.524 159.551 523.172L147.766 535.326C151.019 536.61 154.286 538.029 157.612 539.107C165.568 541.687 173.804 543.232 182.062 544.447C195.599 546.44 209.713 547.359 223.398 546.688L238.59 545.236C248.363 543.355 257.95 541.219 267.395 538.012C293.921 529.003 319.034 513.027 338.37 492.716L338.44 492.459C331.965 490.909 325.654 489.484 319.312 487.381C306.194 483.03 293.476 477.408 280.225 473.484C273.783 471.576 267.184 470.424 260.598 469.155C256.049 468.278 251.55 467.067 246.877 467.427ZM539.019 354.995C535.444 356.071 532.064 358.148 528.745 359.843L506.557 371.651C486.078 382.686 465.627 393.721 446.123 406.429C428.037 418.211 407.385 431.833 396.939 451.351C392.481 459.681 390.401 467.66 389.41 477.007C389.114 479.797 388.696 482.474 388.996 485.282C389.698 485.68 389.801 485.695 390.562 485.71C410.811 484.848 431.145 481.439 450.552 475.572C461.386 472.297 472.258 468.269 481.955 462.36C489.946 457.492 497.01 451.295 503.315 444.41C521.502 424.55 530.92 400.01 536.678 374.074C538.068 367.816 539.628 361.323 540.234 354.947C539.811 354.939 539.438 354.929 539.019 354.995ZM228.247 354.157C230.404 366.891 232.58 379.748 236.25 392.152C241.765 410.789 251.102 428.941 264.187 443.393C268.371 448.013 272.877 452.792 277.972 456.429C289.265 464.49 302.134 469.727 315.188 474.168C335.868 481.203 356.623 484.724 378.423 485.879C378.205 464.532 373.789 450.055 358.312 434.84C330.787 407.779 295.301 389.503 261.584 371.397L240.027 360.013C236.123 358 232.328 355.809 228.247 354.157ZM518.025 467.822C505.57 469.56 493.472 471.927 481.5 475.858L459.995 483.638L430.268 493.007C442.736 504.261 455.89 515.029 470.418 523.545C490.471 535.299 512.099 542.042 535.035 545.232C545.971 545.965 556.887 546.823 567.86 546.417C581.812 545.899 595.078 543.554 608.465 539.688L617.075 536.804C617.93 536.471 619.405 536.104 620.124 535.571L620.402 535.268C616.828 530.547 611.906 526.281 607.616 522.206C586.455 502.105 563.198 484.024 536.079 472.749C531.434 470.818 526.614 468.539 521.625 467.705C520.441 467.507 519.197 467.588 518.025 467.822ZM113.029 305.665C118.517 321.369 123.05 337.524 130.302 352.546C138.161 368.824 148.855 384.263 161.438 397.263C172.632 408.829 185.731 418.713 199.125 427.578C212.338 436.323 225.912 444.217 240.197 451.08C248.753 455.191 258.208 459.145 267.404 461.422C261.373 455.628 255.377 450.205 250.119 443.656C232.485 421.689 224.018 392.848 219.632 365.48L217.946 351.62C217.882 350.978 217.898 348.138 217.625 347.687C217.482 347.45 216.116 346.695 215.82 346.503L210.164 342.949C186.828 328.61 160.492 318.87 134.25 311.403L113.029 305.665ZM654.192 305.487C649.021 306.04 643.899 307.836 638.913 309.278C613.61 316.593 589.984 327.139 566.648 339.197C562.051 341.573 554.794 344.351 551.327 348.244C550.028 349.703 550.448 354.095 550.228 356.121L549.225 363.002C547.627 372.638 545.483 382.272 542.762 391.651C536.637 412.757 527.251 432.664 512.979 449.508C509.846 453.206 506.237 456.428 502.993 460.012C503.407 460.376 503.187 460.272 503.617 460.388C518.234 456.189 532.205 448.72 545.475 441.414C559.454 433.717 573.598 425.576 586.312 415.893C605.76 401.082 621.298 381.954 633.105 360.642C640.481 347.328 646.132 333.525 650.998 319.125C652.518 314.626 654.201 310.388 655.068 305.692L654.192 305.487ZM412.349 494.568L388.684 496.745C389.485 502.571 390.25 508.462 391.813 514.144C396.277 530.368 405.49 543.573 417.835 554.796C419.792 556.576 421.641 558.517 423.738 560.132C440.365 572.944 458.696 579.693 479.301 583.069C489.782 584.787 501.034 585.538 511.606 584.054C519.637 582.927 528.906 580.995 536.341 577.759C547.845 573.626 559.592 567.01 568.038 558.084C563.696 557.458 559.255 557.704 554.878 557.681L541.132 556.998C511.59 554.46 483.771 544.832 458.946 528.649C449.351 522.394 439.531 515.052 431.319 507.029L422.327 497.616C421.637 496.859 420.038 494.639 419.196 494.232C418.316 493.806 413.613 494.442 412.349 494.568ZM351.214 494.365L323.989 518.176C314.805 525.557 304.785 532.527 294.365 538.038C273.184 549.24 249.381 555.619 225.496 557.158L207.05 557.63C204.047 557.594 201.064 557.249 198.061 557.361C206.979 566.9 220.425 574.481 232.775 578.461C240.289 580.704 247.743 583.233 255.562 584.257C261.03 584.973 266.699 584.918 272.199 584.778C291.239 584.295 311.689 580.029 328.495 570.864C348.658 559.867 368.573 540.32 375.086 517.807C377.157 510.649 378.424 503.681 378.559 496.204L351.214 494.365ZM384.401 522.594L380.026 532.25C375.636 540.877 370.577 548.778 364.256 556.131C361.084 559.821 357.412 563.397 353.812 566.671C353.238 567.193 349.494 570.049 349.388 570.482C348.851 572.661 350.1 577.258 350.415 579.518C352.926 597.525 356.619 614.197 362.545 631.405L374.817 662.23L380.934 675.876C381.719 677.466 382.602 679.715 383.801 680.995C387.502 674.956 390.323 667.807 393.282 661.342C397.17 652.848 400.983 644.501 404.14 635.691C411.714 614.554 415.999 593.23 418.875 571.016L418.493 570.706C415.818 568.491 413.475 565.911 411.014 563.469C399.404 551.946 389.397 538.351 384.401 522.594ZM646.056 355.884C635.327 384.133 615.355 407.331 591.38 425.39C583.341 431.446 574.838 436.62 566.187 441.733C557.623 446.794 548.807 451.975 539.747 456.079L531.694 459.561C535.678 461.591 539.867 463.143 544.014 464.804C546.26 465.704 548.438 466.872 550.748 467.59L581.427 452.773C604.403 441.273 627.67 430.045 649.331 416.156C663.907 406.811 677.733 396.003 690.636 384.474L705.767 369.682C707.402 367.926 709.308 366.283 710.777 364.393L691.5 359.804C676.448 356.941 661.359 355.915 646.056 355.884ZM114.317 356.072L56.0237 364.093L63.0329 369.775L75.6582 381.82C90.1773 394.887 105.539 407.46 121.875 418.185C142.948 432.019 166.658 442.531 189.156 453.826C192.169 455.275 216.225 467.372 217.358 467.185L234.128 459.459C221.902 453.672 210.234 447.067 198.748 439.932C178.669 427.46 158.883 412.647 143.973 394.098C136.621 384.952 130.64 375.04 125.225 364.66C123.992 362.296 122.275 356.914 119.625 355.99C118.098 355.457 115.903 355.903 114.317 356.072ZM100.912 431.858L82.1085 433.169C76.7813 433.606 71.1245 434.361 65.794 434.001C71.213 438.707 77.6009 442.593 83.4858 446.696L96.1122 455.655C115.808 468.225 136.286 477.078 158.446 484.235L173.534 488.913L179.184 490.721C182.94 488.348 186.191 485.316 189.758 482.689C194.522 479.179 199.915 476.081 205.206 473.458L148.638 445.975L134.667 438.008C131.967 436.354 128.709 433.66 125.71 432.689C121.204 431.228 115.141 432.164 110.438 432.107C107.267 432.068 104.083 431.578 100.912 431.858ZM655.77 431.864L648.024 432.172C646.58 432.214 644.828 432.102 643.433 432.501C640.141 433.443 636.94 436.13 633.947 437.831L617.783 446.74L594.75 457.938L562.934 473.554C566.51 476.526 570.837 478.689 574.734 481.221L584.534 487.613C585.999 488.575 587.663 490.038 589.345 490.433L603.832 486.136C612.471 483.324 621.179 480.484 629.55 476.944C646.769 469.662 663.199 460.208 678.938 450.172C686.373 445.431 693.995 440.494 700.675 434.706C690.121 432.746 679.49 432.648 668.804 432.088L659.383 431.75C658.288 431.76 656.798 431.605 655.77 431.864ZM552.813 171.215C542.983 175.444 533.992 180.669 524.881 186.235C503.391 199.363 483.053 214.797 464.553 231.881L439.921 256.757L447.487 283.845L448.715 288.282C454.373 279.591 461.165 271.975 467.702 263.979C482.815 245.489 498.24 226.591 516.55 211.15C525.722 203.416 535.355 195.687 545.822 189.772C549.986 187.419 555.079 186.559 555.1 186.516C555.51 185.685 554.605 173.3 554.292 171.797L554.145 171.134L552.813 171.215ZM214.101 171.362L213.844 186.014C222.261 189.041 229.693 194.827 236.907 200.009C252.178 210.979 266.494 223.178 279.504 236.783C290.842 248.638 301.104 261.588 310.909 274.721L319.577 287.23L320.913 279.986L327.45 256.285L327.115 255.975C323.492 252.53 320.619 248.183 317.364 244.384C313.89 240.33 309.896 236.581 306.046 232.885C292.273 219.66 276.697 208.239 261.053 197.362C246.819 187.466 230.962 176.126 214.101 171.362ZM435.24 140.421L453.704 198.782L458.232 213.31C459.179 216.407 459.893 219.516 461.19 222.496L473.742 211.47L483.823 203.41L470.472 181.654C464.548 172.45 458.007 163.876 450.884 155.584C445.998 149.896 441.407 144.779 435.24 140.421ZM330.132 141.961C324.718 146.372 320.549 151.443 316.099 156.757C304.009 171.194 293.918 187.226 284.196 203.321L295.476 212.369L301.728 217.35C303.446 218.85 305.276 220.752 307.36 221.719L313.775 200.394L324.059 165.449L328.288 151.205C329.149 148.326 330.361 144.99 330.588 141.997L330.132 141.961Z"/>
</svg>
